<svg xmlns="http://www.w3.org/2000/svg" viewBox="0 0 16 16" fill="currentColor">
  <path d="M8 9.5a1.5 1.5 0 1 0 0-3 1.5 1.5 0 0 0 0 3Z" />
  <path fill-rule="evenodd" d="M8 .25a7.75 7.75 0 1 0 0 15.5A7.75 7.75 0 0 0 8 .25ZM1.75 8a6.25 6.25 0 1 1 12.5 0 6.25 6.25 0 0 1-12.5 0Z" clip-rule="evenodd" />
  <path d="M8 2.25a.75.75 0 0 1 .75.75v2.19l1.72-1.72a.75.75 0 1 1 1.06 1.06L9.81 6.25H12a.75.75 0 0 1 0 1.5H9.81l1.72 1.72a.75.75 0 1 1-1.06 1.06L8.75 8.81V11a.75.75 0 0 1-1.5 0V8.81l-1.72 1.72a.75.75 0 0 1-1.06-1.06L6.19 7.75H4a.75.75 0 0 1 0-1.5h2.19L4.47 4.53a.75.75 0 0 1 1.06-1.06L7.25 5.19V3a.75.75 0 0 1 .75-.75Z" />
</svg>
